<svg width="583" height="348" viewBox="0 0 583 348" fill="none" xmlns="http://www.w3.org/2000/svg">
<rect width="583" height="348" rx="20" fill="#1F2631"/>
<rect x="12" y="12" width="30" height="30" rx="5" fill="white" fill-opacity="0.1"/>
<rect y="175" width="583" height="40" fill="#0D1013"/>
<rect x="69" y="12" width="102" height="30" rx="5" fill="white" fill-opacity="0.1"/>
<rect x="181" y="12" width="102" height="30" rx="5" fill="#FFA185" fill-opacity="0.5"/>
<rect x="293" y="12" width="102" height="30" rx="5" fill="white" fill-opacity="0.3"/>
<rect x="69" y="180" width="102" height="30" rx="5" fill="#FFA185"/>
<rect x="181" y="180" width="102" height="30" rx="5" fill="white" fill-opacity="0.7"/>
<rect x="293" y="180" width="102" height="30" rx="5" fill="white"/>
<rect x="69" y="96" width="102" height="30" rx="5" fill="white" fill-opacity="0.1"/>
<rect x="181" y="96" width="102" height="30" rx="5" fill="white" fill-opacity="0.3"/>
<rect x="293" y="96" width="102" height="30" rx="5" fill="white" fill-opacity="0.2"/>
<rect x="89" y="54" width="40" height="30" rx="5" fill="white" fill-opacity="0.1"/>
<rect x="139" y="54" width="40" height="30" rx="5" fill="white" fill-opacity="0.2"/>
<rect x="189" y="54" width="40" height="30" rx="5" fill="white" fill-opacity="0.1"/>
<rect x="109" y="264" width="40" height="30" rx="5" fill="white" fill-opacity="0.2"/>
<rect x="159" y="264" width="40" height="30" rx="5" fill="white" fill-opacity="0.1"/>
<rect x="209" y="264" width="40" height="30" rx="5" fill="#FFA185" fill-opacity="0.5"/>
<rect x="89" y="306" width="40" height="30" rx="5" fill="#FFA185" fill-opacity="0.5"/>
<rect x="139" y="306" width="40" height="30" rx="5" fill="#FFA185" fill-opacity="0.5"/>
<rect x="189" y="306" width="40" height="30" rx="5" fill="white" fill-opacity="0.1"/>
<rect x="89" y="222" width="40" height="30" rx="5" fill="white" fill-opacity="0.3"/>
<rect x="139" y="222" width="40" height="30" rx="5" fill="white" fill-opacity="0.2"/>
<rect x="189" y="222" width="40" height="30" rx="5" fill="white" fill-opacity="0.2"/>
<rect x="89" y="138" width="40" height="30" rx="5" fill="white" fill-opacity="0.1"/>
<rect x="139" y="138" width="40" height="30" rx="5" fill="white" fill-opacity="0.2"/>
<rect x="189" y="138" width="40" height="30" rx="5" fill="white" fill-opacity="0.1"/>
<rect x="239" y="54" width="40" height="30" rx="5" fill="#FFA185" fill-opacity="0.5"/>
<rect x="289" y="54" width="40" height="30" rx="5" fill="#FFA185" fill-opacity="0.5"/>
<rect x="339" y="54" width="40" height="30" rx="5" fill="white" fill-opacity="0.3"/>
<rect x="12" y="180" width="30" height="30" rx="5" fill="white" fill-opacity="0.1"/>
<rect x="12" y="222" width="30" height="30" rx="5" fill="white" fill-opacity="0.1"/>
<rect x="12" y="264" width="30" height="30" rx="5" fill="white" fill-opacity="0.1"/>
<rect x="12" y="306" width="30" height="30" rx="5" fill="white" fill-opacity="0.1"/>
<rect x="12" y="138" width="30" height="30" rx="5" fill="white" fill-opacity="0.1"/>
<rect x="12" y="96" width="30" height="30" rx="5" fill="white" fill-opacity="0.1"/>
<rect x="12" y="54" width="30" height="30" rx="5" fill="white" fill-opacity="0.1"/>
<rect x="54" width="3" height="348" fill="white" fill-opacity="0.1"/>
<rect x="162" y="24" width="399" height="102" rx="5" fill="white"/>
<rect x="345" y="72" width="33" height="24" rx="3" fill="#E3E3E3"/>
<rect x="473" y="37" width="74" height="24" rx="3" fill="#FFA185"/>
<rect x="386" y="72" width="74" height="24" rx="3" fill="#FFA185"/>
<rect x="509" y="72" width="38" height="24" rx="3" fill="#E3E3E3"/>
<rect x="468" y="72" width="33" height="24" rx="3" fill="#E3E3E3"/>
<rect x="432" y="37" width="33" height="24" rx="3" fill="#E3E3E3"/>
</svg>
