<svg width="100" height="100" viewBox="0 0 100 100" fill="none" xmlns="http://www.w3.org/2000/svg">
<path fill-rule="evenodd" clip-rule="evenodd" d="M50 12.5C29.2847 12.5 12.5 29.2847 12.5 50C12.5 66.5649 23.2422 80.6274 38.147 85.5835C40.0269 85.9253 40.7104 84.7778 40.7104 83.7769C40.7104 82.8857 40.6738 80.5298 40.6616 77.4048C30.2246 79.6631 28.0273 72.3755 28.0273 72.3755C26.3184 68.042 23.8647 66.8823 23.8647 66.8823C20.459 64.563 24.1211 64.6118 24.1211 64.6118C27.8809 64.8804 29.8584 68.4692 29.8584 68.4692C33.2031 74.2065 38.6353 72.5464 40.7715 71.5942C41.1133 69.165 42.0898 67.5171 43.1519 66.5771C34.8267 65.6372 26.0742 62.4145 26.0742 48.0469C26.0742 43.9453 27.5391 40.6006 29.9316 37.9761C29.5532 37.0361 28.2593 33.2153 30.2979 28.0518C30.2979 28.0518 33.4473 27.0508 40.6128 31.897C43.6035 31.0669 46.814 30.6519 50 30.6397C53.186 30.6519 56.3965 31.0669 59.3872 31.897C66.5527 27.0508 69.6899 28.0518 69.6899 28.0518C71.7407 33.2153 70.459 37.0361 70.0684 37.9761C72.4731 40.6006 73.9136 43.9453 73.9136 48.0469C73.9136 62.4512 65.1489 65.6128 56.7993 66.5527C58.1421 67.7002 59.3384 69.9951 59.3384 73.4863C59.3384 78.5034 59.3018 82.5439 59.3018 83.7769C59.3018 84.7778 59.9731 85.9497 61.8774 85.5835C76.77 80.6152 87.5 66.5649 87.5 50C87.5 29.2847 70.7153 12.5 50 12.5Z" fill="white"/>
</svg>
